M48
; DRILL file {KiCad (6.0.0)} date Tue Oct 18 00:36:34 2022
; FORMAT={-:-/ absolute / inch / decimal}
; #@! TF.CreationDate,2022-10-18T00:36:34-05:00
; #@! TF.GenerationSoftware,Kicad,Pcbnew,(6.0.0)
; #@! TF.FileFunction,Plated,1,2,PTH
FMAT,2
INCH
; #@! TA.AperFunction,Plated,PTH,ViaDrill
T1C0.0157
; #@! TA.AperFunction,Plated,PTH,ComponentDrill
T2C0.0300
; #@! TA.AperFunction,Plated,PTH,ComponentDrill
T3C0.0390
; #@! TA.AperFunction,Plated,PTH,ComponentDrill
T4C0.0400
; #@! TA.AperFunction,Plated,PTH,ComponentDrill
T5C0.0600
; #@! TA.AperFunction,Plated,PTH,ComponentDrill
T6C0.0600
%
G90
G05
T1
X1.049Y-3.4575
X1.1094Y-4.476
X1.1732Y-2.0215
X1.2232Y-3.2913
X1.3268Y-4.2776
X1.8051Y-3.0949
X1.9062Y-3.7421
X1.9063Y-4.2732
X1.939Y-2.7343
X2.1339Y-4.3047
X2.6815Y-1.8402
X2.7516Y-3.6264
X2.8122Y-2.6535
X2.8878Y-4.0744
X3.2185Y-4.1323
X3.3417Y-2.8685
X3.3752Y-3.8516
X3.4657Y-4.389
X3.5583Y-2.3118
X3.9657Y-1.6346
X4.1035Y-3.6157
X4.6232Y-3.7555
X4.972Y-4.5496
X5.0949Y-4.6218
X5.2469Y-2.3516
X5.2504Y-3.3201
X5.3031Y-4.6218
X5.4096Y-4.4266
X5.5882Y-4.1665
X6.1236Y-3.7496
X6.2161Y-4.5398
X6.3744Y-4.0734
X6.3748Y-3.8161
X6.5319Y-4.3681
X6.6012Y-1.8366
X6.7992Y-3.2575
X7.0754Y-4.564
X7.1209Y-4.1752
X7.211Y-4.1598
X7.3756Y-4.7012
X7.4102Y-4.0303
X7.5614Y-4.6366
X7.6075Y-4.0672
X7.6122Y-4.452
X7.6482Y-4.0544
X7.6638Y-4.2661
X7.6882Y-4.0422
X7.727Y-4.0313
X7.7663Y-4.0198
X7.7689Y-4.3488
X7.774Y-4.1965
X7.811Y-4.015
X7.8669Y-4.3376
X7.9457Y-4.1323
X7.9608Y-4.307
X8.0913Y-2.5189
X8.0929Y-2.8799
X8.3425Y-3.8465
X8.4201Y-4.2055
X8.4437Y-3.6504
X8.5201Y-3.5876
X8.6516Y-3.7626
X8.8909Y-4.1406
X8.9144Y-4.109
X8.9397Y-4.0788
X8.9665Y-4.05
X8.9946Y-4.0224
X9.0232Y-3.9953
X9.3437Y-2.8713
X9.3748Y-3.9882
X9.4252Y-4.3642
X9.5687Y-4.266
X10.2441Y-2.3846
X10.4177Y-3.9882
X10.6969Y-4.2668
X11.1937Y-2.3728
X11.3862Y-3.6276
X11.6618Y-1.6319
X12.2098Y-2.5819
X12.3748Y-4.039
X12.3748Y-4.4303
X12.476Y-1.9024
X12.6291Y-4.2366
X12.878Y-4.302
X13.0228Y-3.6268
X13.3811Y-3.9354
X13.428Y-3.9035
X13.4383Y-1.8991
X13.4383Y-4.2688
X14.0626Y-4.0244
X14.063Y-3.8508
X14.5079Y-1.9335
X14.561Y-4.4307
X14.8441Y-1.4425
X14.9744Y-3.1902
X15.1701Y-3.6157
X15.2996Y-2.1598
X15.5898Y-3.4157
X16.0976Y-1.4094
T2
X8.5634Y-4.3917
X8.5634Y-4.4917
X8.5634Y-4.5917
X8.5634Y-4.6917
T3
X1.3562Y-3.2
X1.6437Y-3.2
X13.6374Y-1.7
T4
X1.4563Y-3.2
X1.5437Y-3.2
X13.7374Y-1.7
T5
X1.2562Y-2.9
X1.2562Y-3.65
X1.2562Y-4.4
X1.35Y-2.15
X1.35Y-4.4
X1.4437Y-2.9
X1.5062Y-2.8
X1.5062Y-3.55
X1.5062Y-4.3
X1.6Y-2.05
X1.6Y-4.3
X1.6312Y-3.65
X1.6937Y-2.8
X1.8812Y-3.55
X2.1938Y-4.4
X2.4438Y-4.3
X2.475Y-4.4
X2.725Y-4.3
X3.1313Y-4.4
X3.225Y-4.4
X3.3813Y-4.3
X3.475Y-4.3
X5.6625Y-4.4
X5.9125Y-4.3
X5.9437Y-4.4
X6.1937Y-4.3
X6.4125Y-4.4
X6.6625Y-4.3
X8.85Y-4.4
X9.1Y-4.3
X9.975Y-4.4
X10.225Y-4.3
X10.6312Y-3.65
X10.8812Y-3.55
X11.1937Y-2.9
X11.2875Y-1.4
X11.4437Y-2.8
X11.475Y-2.15
X11.5375Y-1.3
X11.5687Y-2.525
X11.725Y-2.05
X11.8187Y-2.425
X13.9125Y-4.4
X14.1625Y-4.3
X15.7875Y-2.525
X15.7875Y-4.025
X16.0375Y-2.425
X16.0375Y-3.925
T6
X1.1625Y-1.4
X1.4125Y-1.3
X1.9125Y-1.4
X2.1Y-3.65
X2.1625Y-1.3
X2.2875Y-2.15
X2.2875Y-4.4
X2.35Y-3.55
X2.475Y-2.9
X2.5375Y-2.05
X2.5375Y-4.3
X2.6625Y-1.4
X2.725Y-2.8
X2.85Y-3.65
X2.9125Y-1.3
X3.0375Y-2.15
X3.1Y-3.55
X3.225Y-2.9
X3.2875Y-2.05
X3.4125Y-1.4
X3.475Y-2.8
X3.6Y-3.65
X3.6625Y-1.3
X3.7875Y-2.15
X3.85Y-3.55
X3.975Y-2.9
X4.0375Y-2.05
X4.1625Y-1.4
X4.225Y-2.8
X4.35Y-3.65
X4.4125Y-1.3
X4.5375Y-2.15
X4.6Y-3.55
X4.725Y-2.9
X4.7875Y-2.05
X4.9125Y-1.4
X4.975Y-2.8
X5.1Y-3.65
X5.1625Y-1.3
X5.2875Y-2.15
X5.35Y-3.55
X5.475Y-2.9
X5.5375Y-2.05
X5.6625Y-1.4
X5.725Y-2.8
X5.85Y-3.65
X5.9125Y-1.3
X6.0375Y-2.15
X6.1Y-3.55
X6.225Y-2.9
X6.2875Y-2.05
X6.4125Y-1.4
X6.475Y-2.8
X6.6Y-3.65
X6.6625Y-1.3
X6.7875Y-2.15
X6.85Y-3.55
X6.975Y-2.9
X7.0375Y-2.05
X7.1625Y-1.4
X7.225Y-2.8
X7.35Y-3.65
X7.4125Y-1.3
X7.5375Y-2.15
X7.6Y-3.55
X7.725Y-2.9
X7.7875Y-2.05
X7.9125Y-1.4
X7.975Y-2.8
X8.1Y-3.65
X8.1625Y-1.3
X8.2875Y-2.15
X8.35Y-3.55
X8.475Y-2.9
X8.5375Y-2.05
X8.6625Y-1.4
X8.725Y-2.8
X8.85Y-3.65
X8.9125Y-1.3
X9.0375Y-2.15
X9.1Y-3.55
X9.225Y-2.9
X9.2875Y-2.05
X9.4125Y-1.4
X9.475Y-2.8
X9.6Y-3.65
X9.6625Y-1.3
X9.7875Y-2.15
X9.85Y-3.55
X9.975Y-2.9
X10.0375Y-2.05
X10.1625Y-1.4
X10.225Y-2.8
X10.4125Y-1.3
X10.5375Y-2.15
X10.725Y-2.9
X10.7875Y-2.05
X10.9125Y-1.4
X10.975Y-2.8
X11.1Y-4.5875
X11.1625Y-1.3
X11.35Y-4.4875
X11.6625Y-1.4
X11.85Y-3.8375
X11.85Y-4.5875
X11.9125Y-1.3
X12.1Y-3.7375
X12.1Y-4.4875
X12.6Y-1.4
X12.6Y-2.15
X12.6Y-2.9
X12.6Y-4.5875
X12.85Y-1.3
X12.85Y-2.05
X12.85Y-2.8
X12.85Y-4.4875
X13.5375Y-1.4
X13.5375Y-2.15
X13.5375Y-2.9
X13.5375Y-3.65
X13.5375Y-4.4
X13.7875Y-1.3
X13.7875Y-2.05
X13.7875Y-2.8
X13.7875Y-3.55
X13.7875Y-4.3
X14.2875Y-1.4
X14.2875Y-2.15
X14.2875Y-2.9
X14.2875Y-3.65
X14.2875Y-4.4
X14.5375Y-1.3
X14.5375Y-2.05
X14.5375Y-2.8
X14.5375Y-3.55
X14.5375Y-4.3
X15.0375Y-1.4
X15.0375Y-2.15
X15.0375Y-2.9
X15.0375Y-3.65
X15.0375Y-4.4
X15.2875Y-1.3
X15.2875Y-2.05
X15.2875Y-2.8
X15.2875Y-3.55
X15.2875Y-4.3
X15.7875Y-1.4
X16.0375Y-1.3
T0
M30
