%TF.GenerationSoftware,KiCad,Pcbnew,(6.0.0)*%
%TF.CreationDate,2022-10-18T00:35:49-05:00*%
%TF.ProjectId,_autosave-Phidias-F072-pcb,5f617574-6f73-4617-9665-2d5068696469,rev?*%
%TF.SameCoordinates,Original*%
%TF.FileFunction,Soldermask,Bot*%
%TF.FilePolarity,Negative*%
%FSLAX46Y46*%
G04 Gerber Fmt 4.6, Leading zero omitted, Abs format (unit mm)*
G04 Created by KiCad (PCBNEW (6.0.0)) date 2022-10-18 00:35:49*
%MOMM*%
%LPD*%
G01*
G04 APERTURE LIST*
G04 Aperture macros list*
%AMRoundRect*
0 Rectangle with rounded corners*
0 $1 Rounding radius*
0 $2 $3 $4 $5 $6 $7 $8 $9 X,Y pos of 4 corners*
0 Add a 4 corners polygon primitive as box body*
4,1,4,$2,$3,$4,$5,$6,$7,$8,$9,$2,$3,0*
0 Add four circle primitives for the rounded corners*
1,1,$1+$1,$2,$3*
1,1,$1+$1,$4,$5*
1,1,$1+$1,$6,$7*
1,1,$1+$1,$8,$9*
0 Add four rect primitives between the rounded corners*
20,1,$1+$1,$2,$3,$4,$5,0*
20,1,$1+$1,$4,$5,$6,$7,0*
20,1,$1+$1,$6,$7,$8,$9,0*
20,1,$1+$1,$8,$9,$2,$3,0*%
%AMRotRect*
0 Rectangle, with rotation*
0 The origin of the aperture is its center*
0 $1 length*
0 $2 width*
0 $3 Rotation angle, in degrees counterclockwise*
0 Add horizontal line*
21,1,$1,$2,0,0,$3*%
G04 Aperture macros list end*
%ADD10RoundRect,0.100000X0.083085X0.224506X-0.224506X-0.083085X-0.083085X-0.224506X0.224506X0.083085X0*%
%ADD11C,3.987800*%
%ADD12C,3.048000*%
%ADD13C,1.701800*%
%ADD14C,2.540000*%
%ADD15RoundRect,0.150000X-0.150000X0.587500X-0.150000X-0.587500X0.150000X-0.587500X0.150000X0.587500X0*%
%ADD16RoundRect,0.150000X0.587500X0.150000X-0.587500X0.150000X-0.587500X-0.150000X0.587500X-0.150000X0*%
%ADD17RoundRect,0.218750X-0.256250X0.218750X-0.256250X-0.218750X0.256250X-0.218750X0.256250X0.218750X0*%
%ADD18RoundRect,0.150000X-0.309359X-0.521491X0.521491X0.309359X0.309359X0.521491X-0.521491X-0.309359X0*%
%ADD19RoundRect,0.237500X-0.008839X-0.344715X0.344715X0.008839X0.008839X0.344715X-0.344715X-0.008839X0*%
%ADD20C,1.778000*%
%ADD21RoundRect,0.177800X-0.711200X-0.711200X0.711200X-0.711200X0.711200X0.711200X-0.711200X0.711200X0*%
%ADD22RoundRect,0.100000X-0.224506X0.083085X0.083085X-0.224506X0.224506X-0.083085X-0.083085X0.224506X0*%
%ADD23R,0.700000X0.600000*%
%ADD24RoundRect,0.100000X-0.083085X-0.224506X0.224506X0.083085X0.083085X0.224506X-0.224506X-0.083085X0*%
%ADD25RoundRect,0.237500X-0.344715X0.008839X0.008839X-0.344715X0.344715X-0.008839X-0.008839X0.344715X0*%
%ADD26RoundRect,0.177800X0.711200X0.711200X-0.711200X0.711200X-0.711200X-0.711200X0.711200X-0.711200X0*%
%ADD27RoundRect,0.237500X0.237500X-0.250000X0.237500X0.250000X-0.237500X0.250000X-0.237500X-0.250000X0*%
%ADD28RotRect,1.475000X0.300000X45.000000*%
%ADD29RoundRect,0.150000X-0.415425X-0.415425X0.415425X0.415425X0.415425X0.415425X-0.415425X-0.415425X0*%
%ADD30RoundRect,0.150000X0.415425X-0.415425X0.415425X-0.415425X-0.415425X0.415425X-0.415425X0.415425X0*%
%ADD31R,1.524000X1.524000*%
%ADD32O,1.524000X1.524000*%
%ADD33RoundRect,0.237500X0.250000X0.237500X-0.250000X0.237500X-0.250000X-0.237500X0.250000X-0.237500X0*%
%ADD34R,0.600000X1.550000*%
%ADD35R,1.200000X1.800000*%
%ADD36RoundRect,0.100000X0.224506X-0.083085X-0.083085X0.224506X-0.224506X0.083085X0.083085X-0.224506X0*%
%ADD37RoundRect,0.100000X-0.217500X-0.100000X0.217500X-0.100000X0.217500X0.100000X-0.217500X0.100000X0*%
G04 APERTURE END LIST*
D10*
%TO.C,C5*%
X185282322Y-106557678D03*
X184706030Y-107133970D03*
%TD*%
D11*
%TO.C,SW15*%
X278574500Y-46355000D03*
D12*
X278574500Y-31115000D03*
X302450500Y-31115000D03*
D13*
X295592500Y-38100000D03*
D11*
X302450500Y-46355000D03*
X290512500Y-38100000D03*
D13*
X285432500Y-38100000D03*
D14*
X286702500Y-35560000D03*
X293052500Y-33020000D03*
%TD*%
D15*
%TO.C,D4*%
X156212500Y-37162500D03*
X158112500Y-37162500D03*
X157162500Y-39037500D03*
%TD*%
D13*
%TO.C,SW90*%
X233680000Y-114300000D03*
X223520000Y-114300000D03*
D11*
X228600000Y-114300000D03*
D14*
X224790000Y-111760000D03*
X231140000Y-109220000D03*
%TD*%
D11*
%TO.C,SW35*%
X295275000Y-57150000D03*
D13*
X290195000Y-57150000D03*
X300355000Y-57150000D03*
D14*
X291465000Y-54610000D03*
X297815000Y-52070000D03*
%TD*%
D13*
%TO.C,SW44*%
X71755000Y-76200000D03*
D11*
X66675000Y-76200000D03*
D13*
X61595000Y-76200000D03*
D14*
X62865000Y-73660000D03*
X69215000Y-71120000D03*
%TD*%
D13*
%TO.C,SW54*%
X252095000Y-76200000D03*
X262255000Y-76200000D03*
D11*
X257175000Y-76200000D03*
D14*
X253365000Y-73660000D03*
X259715000Y-71120000D03*
%TD*%
D13*
%TO.C,SW70*%
X185420000Y-95250000D03*
X195580000Y-95250000D03*
D11*
X190500000Y-95250000D03*
D14*
X186690000Y-92710000D03*
X193040000Y-90170000D03*
%TD*%
D10*
%TO.C,C7*%
X184728146Y-106001854D03*
X184151854Y-106578146D03*
%TD*%
D11*
%TO.C,SW6*%
X128587500Y-38100000D03*
D13*
X123507500Y-38100000D03*
X133667500Y-38100000D03*
D14*
X124777500Y-35560000D03*
X131127500Y-33020000D03*
%TD*%
D13*
%TO.C,SW8*%
X171767500Y-38100000D03*
D11*
X166687500Y-38100000D03*
D13*
X161607500Y-38100000D03*
D14*
X162877500Y-35560000D03*
X169227500Y-33020000D03*
%TD*%
D15*
%TO.C,D28*%
X310993750Y-75262500D03*
X312893750Y-75262500D03*
X311943750Y-77137500D03*
%TD*%
D13*
%TO.C,SW34*%
X266382500Y-57150000D03*
X276542500Y-57150000D03*
D11*
X271462500Y-57150000D03*
D14*
X267652500Y-54610000D03*
X274002500Y-52070000D03*
%TD*%
D13*
%TO.C,SW52*%
X213995000Y-76200000D03*
D11*
X219075000Y-76200000D03*
D13*
X224155000Y-76200000D03*
D14*
X215265000Y-73660000D03*
X221615000Y-71120000D03*
%TD*%
D16*
%TO.C,Q1*%
X134587500Y-113020000D03*
X134587500Y-114920000D03*
X132712500Y-113970000D03*
%TD*%
D11*
%TO.C,SW57*%
X323850000Y-76200000D03*
D13*
X318770000Y-76200000D03*
X328930000Y-76200000D03*
D14*
X320040000Y-73660000D03*
X326390000Y-71120000D03*
%TD*%
D13*
%TO.C,SW71*%
X214630000Y-95250000D03*
X204470000Y-95250000D03*
D11*
X209550000Y-95250000D03*
D14*
X205740000Y-92710000D03*
X212090000Y-90170000D03*
%TD*%
D17*
%TO.C,LED1*%
X225690000Y-83282500D03*
X225690000Y-84857500D03*
%TD*%
D13*
%TO.C,SW40*%
X390842500Y-57150000D03*
X380682500Y-57150000D03*
D11*
X385762500Y-57150000D03*
D14*
X381952500Y-54610000D03*
X388302500Y-52070000D03*
%TD*%
D13*
%TO.C,SW93*%
X299720000Y-119062500D03*
D11*
X304800000Y-119062500D03*
D13*
X309880000Y-119062500D03*
D14*
X300990000Y-116522500D03*
X307340000Y-113982500D03*
%TD*%
D15*
%TO.C,D41*%
X47468750Y-110187500D03*
X49368750Y-110187500D03*
X48418750Y-112062500D03*
%TD*%
%TO.C,D45*%
X275275000Y-113362500D03*
X277175000Y-113362500D03*
X276225000Y-115237500D03*
%TD*%
D11*
%TO.C,SW30*%
X195262500Y-57150000D03*
D13*
X190182500Y-57150000D03*
X200342500Y-57150000D03*
D14*
X191452500Y-54610000D03*
X197802500Y-52070000D03*
%TD*%
D13*
%TO.C,SW94*%
X318770000Y-119062500D03*
D11*
X323850000Y-119062500D03*
D13*
X328930000Y-119062500D03*
D14*
X320040000Y-116522500D03*
X326390000Y-113982500D03*
%TD*%
D13*
%TO.C,SW82*%
X54451250Y-114300000D03*
D11*
X59531250Y-114300000D03*
D13*
X64611250Y-114300000D03*
D14*
X55721250Y-111760000D03*
X62071250Y-109220000D03*
%TD*%
D13*
%TO.C,SW51*%
X194945000Y-76200000D03*
D11*
X200025000Y-76200000D03*
D13*
X205105000Y-76200000D03*
D14*
X196215000Y-73660000D03*
X202565000Y-71120000D03*
%TD*%
D11*
%TO.C,SW56*%
X276193250Y-84455000D03*
D12*
X276193250Y-69215000D03*
D13*
X293211250Y-76200000D03*
D12*
X300069250Y-69215000D03*
D11*
X288131250Y-76200000D03*
X300069250Y-84455000D03*
D13*
X283051250Y-76200000D03*
D14*
X284321250Y-73660000D03*
X290671250Y-71120000D03*
%TD*%
D13*
%TO.C,SW29*%
X171132500Y-57150000D03*
X181292500Y-57150000D03*
D11*
X176212500Y-57150000D03*
D14*
X172402500Y-54610000D03*
X178752500Y-52070000D03*
%TD*%
D11*
%TO.C,SW86*%
X85725000Y-114300000D03*
D13*
X80645000Y-114300000D03*
X90805000Y-114300000D03*
D14*
X81915000Y-111760000D03*
X88265000Y-109220000D03*
%TD*%
D11*
%TO.C,SW45*%
X85725000Y-76200000D03*
D13*
X90805000Y-76200000D03*
X80645000Y-76200000D03*
D14*
X81915000Y-73660000D03*
X88265000Y-71120000D03*
%TD*%
D13*
%TO.C,SW49*%
X156845000Y-76200000D03*
D11*
X161925000Y-76200000D03*
D13*
X167005000Y-76200000D03*
D14*
X158115000Y-73660000D03*
X164465000Y-71120000D03*
%TD*%
D11*
%TO.C,SW14*%
X280987500Y-38100000D03*
D13*
X286067500Y-38100000D03*
X275907500Y-38100000D03*
D14*
X277177500Y-35560000D03*
X283527500Y-33020000D03*
%TD*%
D15*
%TO.C,D8*%
X310993750Y-37162500D03*
X312893750Y-37162500D03*
X311943750Y-39037500D03*
%TD*%
D13*
%TO.C,SW87*%
X171767500Y-114300000D03*
D11*
X166687500Y-114300000D03*
D12*
X204787500Y-121285000D03*
D13*
X161607500Y-114300000D03*
D11*
X204787500Y-106045000D03*
X109537500Y-106045000D03*
D12*
X109537500Y-121285000D03*
D14*
X162877500Y-111760000D03*
X169227500Y-109220000D03*
%TD*%
D15*
%TO.C,D31*%
X52231250Y-87168750D03*
X54131250Y-87168750D03*
X53181250Y-89043750D03*
%TD*%
%TO.C,D48*%
X394337500Y-110981250D03*
X396237500Y-110981250D03*
X395287500Y-112856250D03*
%TD*%
D13*
%TO.C,SW22*%
X33020000Y-57150000D03*
D11*
X38100000Y-57150000D03*
D13*
X43180000Y-57150000D03*
D14*
X34290000Y-54610000D03*
X40640000Y-52070000D03*
%TD*%
D13*
%TO.C,SW84*%
X61595000Y-114300000D03*
D11*
X66675000Y-114300000D03*
D13*
X71755000Y-114300000D03*
D14*
X62865000Y-111760000D03*
X69215000Y-109220000D03*
%TD*%
D15*
%TO.C,D23*%
X113350000Y-75262500D03*
X115250000Y-75262500D03*
X114300000Y-77137500D03*
%TD*%
D13*
%TO.C,SW72*%
X223520000Y-95250000D03*
X233680000Y-95250000D03*
D11*
X228600000Y-95250000D03*
D14*
X224790000Y-92710000D03*
X231140000Y-90170000D03*
%TD*%
D13*
%TO.C,SW78*%
X390842500Y-95250000D03*
X380682500Y-95250000D03*
D11*
X385762500Y-95250000D03*
D14*
X381952500Y-92710000D03*
X388302500Y-90170000D03*
%TD*%
D10*
%TO.C,C1*%
X196088146Y-119971854D03*
X195511854Y-120548146D03*
%TD*%
D11*
%TO.C,SW2*%
X52387500Y-38100000D03*
D13*
X47307500Y-38100000D03*
X57467500Y-38100000D03*
D14*
X48577500Y-35560000D03*
X54927500Y-33020000D03*
%TD*%
D11*
%TO.C,SW66*%
X114300000Y-95250000D03*
D13*
X109220000Y-95250000D03*
X119380000Y-95250000D03*
D14*
X110490000Y-92710000D03*
X116840000Y-90170000D03*
%TD*%
D15*
%TO.C,D1*%
X41912500Y-37162500D03*
X43812500Y-37162500D03*
X42862500Y-39037500D03*
%TD*%
D13*
%TO.C,SW80*%
X30638750Y-114300000D03*
X40798750Y-114300000D03*
D11*
X35718750Y-114300000D03*
D14*
X31908750Y-111760000D03*
X38258750Y-109220000D03*
%TD*%
D18*
%TO.C,U1*%
X218518839Y-99564664D03*
X217175336Y-98221161D03*
X219172913Y-97567087D03*
%TD*%
D15*
%TO.C,D27*%
X265750000Y-75262500D03*
X267650000Y-75262500D03*
X266700000Y-77137500D03*
%TD*%
D13*
%TO.C,SW27*%
X133032500Y-57150000D03*
D11*
X138112500Y-57150000D03*
D13*
X143192500Y-57150000D03*
D14*
X134302500Y-54610000D03*
X140652500Y-52070000D03*
%TD*%
D19*
%TO.C,R2*%
X193244765Y-118955235D03*
X194535235Y-117664765D03*
%TD*%
D13*
%TO.C,SW19*%
X361632500Y-38100000D03*
D11*
X366712500Y-38100000D03*
D13*
X371792500Y-38100000D03*
D14*
X362902500Y-35560000D03*
X369252500Y-33020000D03*
%TD*%
D13*
%TO.C,SW88*%
X159861250Y-114300000D03*
D11*
X104743250Y-106045000D03*
D12*
X104743250Y-121285000D03*
D11*
X204819250Y-106045000D03*
X154781250Y-114300000D03*
D13*
X149701250Y-114300000D03*
D12*
X204819250Y-121285000D03*
D14*
X150971250Y-111760000D03*
X157321250Y-109220000D03*
%TD*%
D20*
%TO.C,LED3*%
X39210000Y-81280000D03*
D21*
X41750000Y-81280000D03*
%TD*%
D22*
%TO.C,C10*%
X182416030Y-116016030D03*
X182992322Y-116592322D03*
%TD*%
D15*
%TO.C,D24*%
X151450000Y-75262500D03*
X153350000Y-75262500D03*
X152400000Y-77137500D03*
%TD*%
D23*
%TO.C,D49*%
X129260000Y-113720000D03*
X129260000Y-115120000D03*
%TD*%
D24*
%TO.C,C6*%
X189351854Y-118848146D03*
X189928146Y-118271854D03*
%TD*%
D10*
%TO.C,C2*%
X183608146Y-119201854D03*
X183031854Y-119778146D03*
%TD*%
D15*
%TO.C,D26*%
X227650000Y-75262500D03*
X229550000Y-75262500D03*
X228600000Y-77137500D03*
%TD*%
%TO.C,D2*%
X80012500Y-37162500D03*
X81912500Y-37162500D03*
X80962500Y-39037500D03*
%TD*%
D11*
%TO.C,SW32*%
X233362500Y-57150000D03*
D13*
X238442500Y-57150000D03*
X228282500Y-57150000D03*
D14*
X229552500Y-54610000D03*
X235902500Y-52070000D03*
%TD*%
D13*
%TO.C,SW28*%
X162242500Y-57150000D03*
D11*
X157162500Y-57150000D03*
D13*
X152082500Y-57150000D03*
D14*
X153352500Y-54610000D03*
X159702500Y-52070000D03*
%TD*%
D25*
%TO.C,R3*%
X180430000Y-117560000D03*
X181720470Y-118850470D03*
%TD*%
D11*
%TO.C,SW5*%
X109537500Y-38100000D03*
D13*
X104457500Y-38100000D03*
X114617500Y-38100000D03*
D14*
X105727500Y-35560000D03*
X112077500Y-33020000D03*
%TD*%
D13*
%TO.C,SW10*%
X199707500Y-38100000D03*
X209867500Y-38100000D03*
D11*
X204787500Y-38100000D03*
D14*
X200977500Y-35560000D03*
X207327500Y-33020000D03*
%TD*%
D15*
%TO.C,D21*%
X52231250Y-75262500D03*
X54131250Y-75262500D03*
X53181250Y-77137500D03*
%TD*%
D11*
%TO.C,SW79*%
X396557500Y-116713000D03*
D13*
X409892500Y-104775000D03*
D11*
X404812500Y-104775000D03*
D12*
X411797500Y-116713000D03*
X411797500Y-92837000D03*
D11*
X396557500Y-92837000D03*
D13*
X399732500Y-104775000D03*
D14*
X401002500Y-102235000D03*
X407352500Y-99695000D03*
%TD*%
D11*
%TO.C,SW16*%
X300037500Y-38100000D03*
D13*
X305117500Y-38100000D03*
X294957500Y-38100000D03*
D14*
X296227500Y-35560000D03*
X302577500Y-33020000D03*
%TD*%
D12*
%TO.C,SW89*%
X204787500Y-121285000D03*
D11*
X147637500Y-114300000D03*
X90487500Y-106045000D03*
D13*
X152717500Y-114300000D03*
D11*
X204787500Y-106045000D03*
D12*
X90487500Y-121285000D03*
D13*
X142557500Y-114300000D03*
D14*
X143827500Y-111760000D03*
X150177500Y-109220000D03*
%TD*%
D13*
%TO.C,SW62*%
X50323750Y-95250000D03*
D12*
X57181750Y-88265000D03*
D11*
X33305750Y-103505000D03*
X57181750Y-103505000D03*
X45243750Y-95250000D03*
D13*
X40163750Y-95250000D03*
D12*
X33305750Y-88265000D03*
D14*
X41433750Y-92710000D03*
X47783750Y-90170000D03*
%TD*%
D13*
%TO.C,SW31*%
X219392500Y-57150000D03*
D11*
X214312500Y-57150000D03*
D13*
X209232500Y-57150000D03*
D14*
X210502500Y-54610000D03*
X216852500Y-52070000D03*
%TD*%
D15*
%TO.C,D43*%
X160975000Y-105425000D03*
X162875000Y-105425000D03*
X161925000Y-107300000D03*
%TD*%
D13*
%TO.C,SW4*%
X85407500Y-38100000D03*
D11*
X90487500Y-38100000D03*
D13*
X95567500Y-38100000D03*
D14*
X86677500Y-35560000D03*
X93027500Y-33020000D03*
%TD*%
D13*
%TO.C,SW37*%
X328930000Y-57150000D03*
X318770000Y-57150000D03*
D11*
X323850000Y-57150000D03*
D14*
X320040000Y-54610000D03*
X326390000Y-52070000D03*
%TD*%
D20*
%TO.C,LED2*%
X36988750Y-81280000D03*
D26*
X34448750Y-81280000D03*
%TD*%
D15*
%TO.C,D46*%
X313375000Y-114156250D03*
X315275000Y-114156250D03*
X314325000Y-116031250D03*
%TD*%
D20*
%TO.C,LED4*%
X348930000Y-43180000D03*
D26*
X346390000Y-43180000D03*
%TD*%
D15*
%TO.C,D37*%
X260193750Y-94312500D03*
X262093750Y-94312500D03*
X261143750Y-96187500D03*
%TD*%
%TO.C,D17*%
X260987500Y-56212500D03*
X262887500Y-56212500D03*
X261937500Y-58087500D03*
%TD*%
D11*
%TO.C,SW65*%
X95250000Y-95250000D03*
D13*
X100330000Y-95250000D03*
X90170000Y-95250000D03*
D14*
X91440000Y-92710000D03*
X97790000Y-90170000D03*
%TD*%
D11*
%TO.C,SW18*%
X347662500Y-38100000D03*
D13*
X342582500Y-38100000D03*
X352742500Y-38100000D03*
D14*
X343852500Y-35560000D03*
X350202500Y-33020000D03*
%TD*%
D13*
%TO.C,SW43*%
X35401250Y-76200000D03*
D11*
X40481250Y-76200000D03*
D13*
X45561250Y-76200000D03*
D14*
X36671250Y-73660000D03*
X43021250Y-71120000D03*
%TD*%
D13*
%TO.C,SW33*%
X257492500Y-57150000D03*
X247332500Y-57150000D03*
D11*
X252412500Y-57150000D03*
D14*
X248602500Y-54610000D03*
X254952500Y-52070000D03*
%TD*%
D13*
%TO.C,SW48*%
X137795000Y-76200000D03*
D11*
X142875000Y-76200000D03*
D13*
X147955000Y-76200000D03*
D14*
X139065000Y-73660000D03*
X145415000Y-71120000D03*
%TD*%
D13*
%TO.C,SW85*%
X88423750Y-114300000D03*
D11*
X83343750Y-114300000D03*
D13*
X78263750Y-114300000D03*
D14*
X79533750Y-111760000D03*
X85883750Y-109220000D03*
%TD*%
D11*
%TO.C,SW76*%
X347662500Y-95250000D03*
D13*
X352742500Y-95250000D03*
X342582500Y-95250000D03*
D14*
X343852500Y-92710000D03*
X350202500Y-90170000D03*
%TD*%
D15*
%TO.C,D33*%
X122875000Y-94312500D03*
X124775000Y-94312500D03*
X123825000Y-96187500D03*
%TD*%
D13*
%TO.C,SW13*%
X256857500Y-38100000D03*
X267017500Y-38100000D03*
D11*
X261937500Y-38100000D03*
D14*
X258127500Y-35560000D03*
X264477500Y-33020000D03*
%TD*%
D13*
%TO.C,SW17*%
X318770000Y-38100000D03*
X328930000Y-38100000D03*
D11*
X323850000Y-38100000D03*
D14*
X320040000Y-35560000D03*
X326390000Y-33020000D03*
%TD*%
D13*
%TO.C,SW21*%
X409892500Y-38100000D03*
D11*
X404812500Y-38100000D03*
D13*
X399732500Y-38100000D03*
D14*
X401002500Y-35560000D03*
X407352500Y-33020000D03*
%TD*%
D15*
%TO.C,D3*%
X118112500Y-37162500D03*
X120012500Y-37162500D03*
X119062500Y-39037500D03*
%TD*%
D13*
%TO.C,SW68*%
X157480000Y-95250000D03*
D11*
X152400000Y-95250000D03*
D13*
X147320000Y-95250000D03*
D14*
X148590000Y-92710000D03*
X154940000Y-90170000D03*
%TD*%
D13*
%TO.C,SW77*%
X361632500Y-95250000D03*
D11*
X366712500Y-95250000D03*
D13*
X371792500Y-95250000D03*
D14*
X362902500Y-92710000D03*
X369252500Y-90170000D03*
%TD*%
D13*
%TO.C,SW53*%
X233045000Y-76200000D03*
D11*
X238125000Y-76200000D03*
D13*
X243205000Y-76200000D03*
D14*
X234315000Y-73660000D03*
X240665000Y-71120000D03*
%TD*%
D13*
%TO.C,SW11*%
X228917500Y-38100000D03*
X218757500Y-38100000D03*
D11*
X223837500Y-38100000D03*
D14*
X220027500Y-35560000D03*
X226377500Y-33020000D03*
%TD*%
D13*
%TO.C,SW9*%
X190817500Y-38100000D03*
X180657500Y-38100000D03*
D11*
X185737500Y-38100000D03*
D14*
X181927500Y-35560000D03*
X188277500Y-33020000D03*
%TD*%
D13*
%TO.C,SW74*%
X278923750Y-95250000D03*
X268763750Y-95250000D03*
D11*
X273843750Y-95250000D03*
D14*
X270033750Y-92710000D03*
X276383750Y-90170000D03*
%TD*%
D15*
%TO.C,D5*%
X194312500Y-37162500D03*
X196212500Y-37162500D03*
X195262500Y-39037500D03*
%TD*%
%TO.C,D11*%
X49056250Y-56212500D03*
X50956250Y-56212500D03*
X50006250Y-58087500D03*
%TD*%
D13*
%TO.C,SW69*%
X166370000Y-95250000D03*
D11*
X171450000Y-95250000D03*
D13*
X176530000Y-95250000D03*
D14*
X167640000Y-92710000D03*
X173990000Y-90170000D03*
%TD*%
D13*
%TO.C,SW1*%
X28257500Y-38100000D03*
X38417500Y-38100000D03*
D11*
X33337500Y-38100000D03*
D14*
X29527500Y-35560000D03*
X35877500Y-33020000D03*
%TD*%
D15*
%TO.C,D35*%
X199075000Y-94312500D03*
X200975000Y-94312500D03*
X200025000Y-96187500D03*
%TD*%
D11*
%TO.C,SW60*%
X385762500Y-76200000D03*
D13*
X380682500Y-76200000D03*
X390842500Y-76200000D03*
D14*
X381952500Y-73660000D03*
X388302500Y-71120000D03*
%TD*%
D15*
%TO.C,D30*%
X394337500Y-71293750D03*
X396237500Y-71293750D03*
X395287500Y-73168750D03*
%TD*%
D13*
%TO.C,SW61*%
X30638750Y-95250000D03*
X40798750Y-95250000D03*
D11*
X35718750Y-95250000D03*
D14*
X31908750Y-92710000D03*
X38258750Y-90170000D03*
%TD*%
D27*
%TO.C,R4*%
X127640000Y-114932500D03*
X127640000Y-113107500D03*
%TD*%
D11*
%TO.C,SW96*%
X357187500Y-114300000D03*
X345249500Y-106045000D03*
X369125500Y-106045000D03*
D12*
X345249500Y-121285000D03*
X369125500Y-121285000D03*
D13*
X362267500Y-114300000D03*
X352107500Y-114300000D03*
D14*
X353377500Y-111760000D03*
X359727500Y-109220000D03*
%TD*%
D27*
%TO.C,R6*%
X227310000Y-85012500D03*
X227310000Y-83187500D03*
%TD*%
D28*
%TO.C,U2*%
X186326212Y-117600376D03*
D29*
X185972658Y-117246822D03*
X185619105Y-116893269D03*
X185265551Y-116539715D03*
X184911998Y-116186162D03*
X184558445Y-115832609D03*
X184204891Y-115479055D03*
X183851338Y-115125502D03*
X183497785Y-114771949D03*
X183144231Y-114418395D03*
X182790678Y-114064842D03*
X182437124Y-113711288D03*
D30*
X182437124Y-111713712D03*
X182790678Y-111360158D03*
X183144231Y-111006605D03*
X183497785Y-110653051D03*
X183851338Y-110299498D03*
X184204891Y-109945945D03*
X184558445Y-109592391D03*
X184911998Y-109238838D03*
X185265551Y-108885285D03*
X185619105Y-108531731D03*
X185972658Y-108178178D03*
X186326212Y-107824624D03*
D29*
X188323788Y-107824624D03*
X188677342Y-108178178D03*
X189030895Y-108531731D03*
X189384449Y-108885285D03*
X189738002Y-109238838D03*
X190091555Y-109592391D03*
X190445109Y-109945945D03*
X190798662Y-110299498D03*
X191152215Y-110653051D03*
X191505769Y-111006605D03*
X191859322Y-111360158D03*
X192212876Y-111713712D03*
D30*
X192212876Y-113711288D03*
X191859322Y-114064842D03*
X191505769Y-114418395D03*
X191152215Y-114771949D03*
X190798662Y-115125502D03*
X190445109Y-115479055D03*
X190091555Y-115832609D03*
X189738002Y-116186162D03*
X189384449Y-116539715D03*
X189030895Y-116893269D03*
X188677342Y-117246822D03*
X188323788Y-117600376D03*
%TD*%
D11*
%TO.C,SW75*%
X304800000Y-100012500D03*
D13*
X309880000Y-100012500D03*
X299720000Y-100012500D03*
D14*
X300990000Y-97472500D03*
X307340000Y-94932500D03*
%TD*%
D15*
%TO.C,D16*%
X222887500Y-56212500D03*
X224787500Y-56212500D03*
X223837500Y-58087500D03*
%TD*%
D31*
%TO.C,J2*%
X217510000Y-119170000D03*
D32*
X217510000Y-116630000D03*
X217510000Y-114090000D03*
X217510000Y-111550000D03*
%TD*%
D15*
%TO.C,D7*%
X270512500Y-37162500D03*
X272412500Y-37162500D03*
X271462500Y-39037500D03*
%TD*%
D13*
%TO.C,SW47*%
X128905000Y-76200000D03*
X118745000Y-76200000D03*
D11*
X123825000Y-76200000D03*
D14*
X120015000Y-73660000D03*
X126365000Y-71120000D03*
%TD*%
D15*
%TO.C,D22*%
X75250000Y-75262500D03*
X77150000Y-75262500D03*
X76200000Y-77137500D03*
%TD*%
D13*
%TO.C,SW3*%
X66357500Y-38100000D03*
X76517500Y-38100000D03*
D11*
X71437500Y-38100000D03*
D14*
X67627500Y-35560000D03*
X73977500Y-33020000D03*
%TD*%
D15*
%TO.C,D13*%
X108587500Y-56212500D03*
X110487500Y-56212500D03*
X109537500Y-58087500D03*
%TD*%
%TO.C,D44*%
X242093750Y-113506250D03*
X243993750Y-113506250D03*
X243043750Y-115381250D03*
%TD*%
D13*
%TO.C,SW55*%
X271145000Y-76200000D03*
D11*
X276225000Y-76200000D03*
D13*
X281305000Y-76200000D03*
D14*
X272415000Y-73660000D03*
X278765000Y-71120000D03*
%TD*%
D15*
%TO.C,D12*%
X70487500Y-56212500D03*
X72387500Y-56212500D03*
X71437500Y-58087500D03*
%TD*%
%TO.C,D15*%
X184787500Y-56212500D03*
X186687500Y-56212500D03*
X185737500Y-58087500D03*
%TD*%
D13*
%TO.C,SW91*%
X262255000Y-114300000D03*
X252095000Y-114300000D03*
D11*
X257175000Y-114300000D03*
D14*
X253365000Y-111760000D03*
X259715000Y-109220000D03*
%TD*%
D33*
%TO.C,R8*%
X348575000Y-45243750D03*
X346750000Y-45243750D03*
%TD*%
D34*
%TO.C,J1*%
X217575000Y-87750000D03*
X218575000Y-87750000D03*
X219575000Y-87750000D03*
X220575000Y-87750000D03*
D35*
X215975000Y-83875000D03*
X222175000Y-83875000D03*
%TD*%
D15*
%TO.C,D47*%
X356237500Y-103837500D03*
X358137500Y-103837500D03*
X357187500Y-105712500D03*
%TD*%
%TO.C,D19*%
X356237500Y-56212500D03*
X358137500Y-56212500D03*
X357187500Y-58087500D03*
%TD*%
D13*
%TO.C,SW73*%
X252730000Y-95250000D03*
X242570000Y-95250000D03*
D11*
X247650000Y-95250000D03*
D14*
X243840000Y-92710000D03*
X250190000Y-90170000D03*
%TD*%
D12*
%TO.C,SW36*%
X304641250Y-78613000D03*
D13*
X302736250Y-66675000D03*
D12*
X304641250Y-54737000D03*
D13*
X292576250Y-66675000D03*
D11*
X289401250Y-54737000D03*
X297656250Y-66675000D03*
X289401250Y-78613000D03*
D14*
X293846250Y-64135000D03*
X300196250Y-61595000D03*
%TD*%
D15*
%TO.C,D40*%
X394337500Y-99868750D03*
X396237500Y-99868750D03*
X395287500Y-101743750D03*
%TD*%
D13*
%TO.C,SW64*%
X81280000Y-95250000D03*
X71120000Y-95250000D03*
D11*
X76200000Y-95250000D03*
D14*
X72390000Y-92710000D03*
X78740000Y-90170000D03*
%TD*%
D11*
%TO.C,SW98*%
X385762500Y-114300000D03*
D13*
X380682500Y-114300000D03*
X390842500Y-114300000D03*
D14*
X381952500Y-111760000D03*
X388302500Y-109220000D03*
%TD*%
D15*
%TO.C,D25*%
X189550000Y-75262500D03*
X191450000Y-75262500D03*
X190500000Y-77137500D03*
%TD*%
D13*
%TO.C,SW41*%
X409892500Y-66675000D03*
X399732500Y-66675000D03*
D11*
X396557500Y-78613000D03*
X396557500Y-54737000D03*
D12*
X411797500Y-54737000D03*
X411797500Y-78613000D03*
D11*
X404812500Y-66675000D03*
D14*
X401002500Y-64135000D03*
X407352500Y-61595000D03*
%TD*%
D22*
%TO.C,C11*%
X181516030Y-116916030D03*
X182092322Y-117492322D03*
%TD*%
D11*
%TO.C,SW95*%
X347662500Y-114300000D03*
D13*
X352742500Y-114300000D03*
X342582500Y-114300000D03*
D14*
X343852500Y-111760000D03*
X350202500Y-109220000D03*
%TD*%
D13*
%TO.C,SW50*%
X186055000Y-76200000D03*
X175895000Y-76200000D03*
D11*
X180975000Y-76200000D03*
D14*
X177165000Y-73660000D03*
X183515000Y-71120000D03*
%TD*%
D15*
%TO.C,D39*%
X356237500Y-94312500D03*
X358137500Y-94312500D03*
X357187500Y-96187500D03*
%TD*%
D27*
%TO.C,R5*%
X130870000Y-114942500D03*
X130870000Y-113117500D03*
%TD*%
D33*
%TO.C,R7*%
X37052500Y-83600000D03*
X35227500Y-83600000D03*
%TD*%
D15*
%TO.C,D29*%
X356237500Y-75262500D03*
X358137500Y-75262500D03*
X357187500Y-77137500D03*
%TD*%
%TO.C,D42*%
X80806250Y-106218750D03*
X82706250Y-106218750D03*
X81756250Y-108093750D03*
%TD*%
%TO.C,D38*%
X313375000Y-99075000D03*
X315275000Y-99075000D03*
X314325000Y-100950000D03*
%TD*%
D13*
%TO.C,SW58*%
X352742500Y-76200000D03*
D11*
X347662500Y-76200000D03*
D13*
X342582500Y-76200000D03*
D14*
X343852500Y-73660000D03*
X350202500Y-71120000D03*
%TD*%
D13*
%TO.C,SW26*%
X124142500Y-57150000D03*
D11*
X119062500Y-57150000D03*
D13*
X113982500Y-57150000D03*
D14*
X115252500Y-54610000D03*
X121602500Y-52070000D03*
%TD*%
D36*
%TO.C,C9*%
X194308146Y-110438146D03*
X193731854Y-109861854D03*
%TD*%
D13*
%TO.C,SW67*%
X128270000Y-95250000D03*
X138430000Y-95250000D03*
D11*
X133350000Y-95250000D03*
D14*
X129540000Y-92710000D03*
X135890000Y-90170000D03*
%TD*%
D15*
%TO.C,D36*%
X237175000Y-94312500D03*
X239075000Y-94312500D03*
X238125000Y-96187500D03*
%TD*%
D13*
%TO.C,SW42*%
X40798750Y-76200000D03*
X30638750Y-76200000D03*
D11*
X35718750Y-76200000D03*
D14*
X31908750Y-73660000D03*
X38258750Y-71120000D03*
%TD*%
D36*
%TO.C,C8*%
X193708146Y-111038146D03*
X193131854Y-110461854D03*
%TD*%
D15*
%TO.C,D10*%
X394337500Y-37162500D03*
X396237500Y-37162500D03*
X395287500Y-39037500D03*
%TD*%
%TO.C,D14*%
X146687500Y-56212500D03*
X148587500Y-56212500D03*
X147637500Y-58087500D03*
%TD*%
D13*
%TO.C,SW12*%
X247967500Y-38100000D03*
X237807500Y-38100000D03*
D11*
X242887500Y-38100000D03*
D14*
X239077500Y-35560000D03*
X245427500Y-33020000D03*
%TD*%
D15*
%TO.C,D20*%
X394337500Y-47481250D03*
X396237500Y-47481250D03*
X395287500Y-49356250D03*
%TD*%
D37*
%TO.C,C3*%
X223337500Y-89470000D03*
X222522500Y-89470000D03*
%TD*%
D22*
%TO.C,C4*%
X214751854Y-101441854D03*
X215328146Y-102018146D03*
%TD*%
D11*
%TO.C,SW23*%
X61912500Y-57150000D03*
D13*
X66992500Y-57150000D03*
X56832500Y-57150000D03*
D14*
X58102500Y-54610000D03*
X64452500Y-52070000D03*
%TD*%
D11*
%TO.C,SW39*%
X366712500Y-57150000D03*
D13*
X371792500Y-57150000D03*
X361632500Y-57150000D03*
D14*
X362902500Y-54610000D03*
X369252500Y-52070000D03*
%TD*%
D13*
%TO.C,SW92*%
X280670000Y-119062500D03*
X290830000Y-119062500D03*
D11*
X285750000Y-119062500D03*
D14*
X281940000Y-116522500D03*
X288290000Y-113982500D03*
%TD*%
D19*
%TO.C,R1*%
X194364765Y-120075235D03*
X195655235Y-118784765D03*
%TD*%
D13*
%TO.C,SW24*%
X86042500Y-57150000D03*
X75882500Y-57150000D03*
D11*
X80962500Y-57150000D03*
D14*
X77152500Y-54610000D03*
X83502500Y-52070000D03*
%TD*%
D15*
%TO.C,D6*%
X232412500Y-37162500D03*
X234312500Y-37162500D03*
X233362500Y-39037500D03*
%TD*%
%TO.C,D32*%
X84775000Y-94312500D03*
X86675000Y-94312500D03*
X85725000Y-96187500D03*
%TD*%
%TO.C,D9*%
X356237500Y-37162500D03*
X358137500Y-37162500D03*
X357187500Y-39037500D03*
%TD*%
%TO.C,D18*%
X310993750Y-56212500D03*
X312893750Y-56212500D03*
X311943750Y-58087500D03*
%TD*%
D13*
%TO.C,SW59*%
X371792500Y-76200000D03*
X361632500Y-76200000D03*
D11*
X366712500Y-76200000D03*
D14*
X362902500Y-73660000D03*
X369252500Y-71120000D03*
%TD*%
D15*
%TO.C,D34*%
X160975000Y-93518750D03*
X162875000Y-93518750D03*
X161925000Y-95393750D03*
%TD*%
D13*
%TO.C,SW81*%
X43180000Y-114300000D03*
D11*
X38100000Y-114300000D03*
D13*
X33020000Y-114300000D03*
D14*
X34290000Y-111760000D03*
X40640000Y-109220000D03*
%TD*%
D13*
%TO.C,SW25*%
X94932500Y-57150000D03*
D11*
X100012500Y-57150000D03*
D13*
X105092500Y-57150000D03*
D14*
X96202500Y-54610000D03*
X102552500Y-52070000D03*
%TD*%
D13*
%TO.C,SW46*%
X109855000Y-76200000D03*
D11*
X104775000Y-76200000D03*
D13*
X99695000Y-76200000D03*
D14*
X100965000Y-73660000D03*
X107315000Y-71120000D03*
%TD*%
D11*
%TO.C,SW97*%
X366712500Y-114300000D03*
D13*
X371792500Y-114300000D03*
X361632500Y-114300000D03*
D14*
X362902500Y-111760000D03*
X369252500Y-109220000D03*
%TD*%
D11*
%TO.C,SW38*%
X347662500Y-57150000D03*
D13*
X352742500Y-57150000D03*
X342582500Y-57150000D03*
D14*
X343852500Y-54610000D03*
X350202500Y-52070000D03*
%TD*%
D11*
%TO.C,SW7*%
X147637500Y-38100000D03*
D13*
X152717500Y-38100000D03*
X142557500Y-38100000D03*
D14*
X143827500Y-35560000D03*
X150177500Y-33020000D03*
%TD*%
D13*
%TO.C,SW20*%
X390842500Y-38100000D03*
D11*
X385762500Y-38100000D03*
D13*
X380682500Y-38100000D03*
D14*
X381952500Y-35560000D03*
X388302500Y-33020000D03*
%TD*%
D13*
%TO.C,SW63*%
X52070000Y-95250000D03*
X62230000Y-95250000D03*
D11*
X57150000Y-95250000D03*
D14*
X53340000Y-92710000D03*
X59690000Y-90170000D03*
%TD*%
D13*
%TO.C,SW83*%
X56832500Y-114300000D03*
X66992500Y-114300000D03*
D11*
X61912500Y-114300000D03*
D14*
X58102500Y-111760000D03*
X64452500Y-109220000D03*
%TD*%
M02*
