%TF.GenerationSoftware,KiCad,Pcbnew,(6.0.0)*%
%TF.CreationDate,2022-10-18T00:40:26-05:00*%
%TF.ProjectId,_autosave-Phidias-F072-pcb,5f617574-6f73-4617-9665-2d5068696469,rev?*%
%TF.SameCoordinates,Original*%
%TF.FileFunction,Profile,NP*%
%FSLAX46Y46*%
G04 Gerber Fmt 4.6, Leading zero omitted, Abs format (unit mm)*
G04 Created by KiCad (PCBNEW (6.0.0)) date 2022-10-18 00:40:26*
%MOMM*%
%LPD*%
G01*
G04 APERTURE LIST*
%TA.AperFunction,Profile*%
%ADD10C,0.100000*%
%TD*%
G04 APERTURE END LIST*
D10*
X334962500Y-122237500D02*
G75*
G03*
X333375000Y-123825000I0J-1587500D01*
G01*
X93662500Y-122237500D02*
G75*
G03*
X92868750Y-123031250I0J-793750D01*
G01*
X112712500Y-122237500D02*
X201612500Y-122237500D01*
X276225000Y-123825000D02*
G75*
G03*
X274637500Y-122237500I-1587500J0D01*
G01*
X346868750Y-123825000D02*
G75*
G03*
X347662500Y-123031250I0J793750D01*
G01*
X202406250Y-123031250D02*
G75*
G03*
X201612500Y-122237500I-793750J0D01*
G01*
X276225000Y-123825000D02*
G75*
G03*
X277812500Y-125412500I1587500J0D01*
G01*
X366712500Y-123031250D02*
G75*
G03*
X367506250Y-123825000I793750J0D01*
G01*
X88900000Y-123825000D02*
X92075000Y-123825000D01*
X28575000Y-29368750D02*
G75*
G03*
X23812500Y-34131250I0J-4762500D01*
G01*
X300037500Y-29368750D02*
X280987500Y-29368750D01*
X42862500Y-122237500D02*
X87312500Y-122237500D01*
X396875000Y-120650000D02*
G75*
G03*
X396081250Y-121443750I0J-793750D01*
G01*
X23812500Y-119062500D02*
G75*
G03*
X25400000Y-120650000I1587500J0D01*
G01*
X372268750Y-122237500D02*
G75*
G03*
X371475000Y-123031250I0J-793750D01*
G01*
X88106250Y-123031250D02*
G75*
G03*
X87312500Y-122237500I-793750J0D01*
G01*
X395287500Y-122237500D02*
G75*
G03*
X396081250Y-121443750I0J793750D01*
G01*
X111125000Y-123825000D02*
G75*
G03*
X111918750Y-123031250I0J793750D01*
G01*
X103187500Y-123825000D02*
X111125000Y-123825000D01*
X92075000Y-123825000D02*
G75*
G03*
X92868750Y-123031250I0J793750D01*
G01*
X414337500Y-34131250D02*
G75*
G03*
X409575000Y-29368750I-4762500J0D01*
G01*
X414337500Y-119062500D02*
X414337500Y-34131250D01*
X102393750Y-123031250D02*
G75*
G03*
X103187500Y-123825000I793750J0D01*
G01*
X331787500Y-125412500D02*
G75*
G03*
X333375000Y-123825000I0J1587500D01*
G01*
X396875000Y-120650000D02*
X412750000Y-120650000D01*
X304800000Y-29368750D02*
G75*
G03*
X300037500Y-29368750I-2381250J-2381250D01*
G01*
X366712500Y-123031250D02*
G75*
G03*
X365918750Y-122237500I-793750J0D01*
G01*
X276225000Y-29368750D02*
X28575000Y-29368750D01*
X304800000Y-29368750D02*
X409575000Y-29368750D01*
X334962500Y-122237500D02*
X342106250Y-122237500D01*
X203200000Y-123825000D02*
X206375000Y-123825000D01*
X202406250Y-123031250D02*
G75*
G03*
X203200000Y-123825000I793750J0D01*
G01*
X370681250Y-123825000D02*
G75*
G03*
X371475000Y-123031250I0J793750D01*
G01*
X93662500Y-122237500D02*
X101600000Y-122237500D01*
X23812500Y-34131250D02*
X23812500Y-119062500D01*
X342900000Y-123031250D02*
G75*
G03*
X343693750Y-123825000I793750J0D01*
G01*
X343693750Y-123825000D02*
X346868750Y-123825000D01*
X372268750Y-122237500D02*
X395287500Y-122237500D01*
X207962500Y-122237500D02*
G75*
G03*
X207168750Y-123031250I0J-793750D01*
G01*
X367506250Y-123825000D02*
X370681250Y-123825000D01*
X25400000Y-120650000D02*
X41275000Y-120650000D01*
X207962500Y-122237500D02*
X274637500Y-122237500D01*
X280987500Y-29368750D02*
G75*
G03*
X276225000Y-29368750I-2381250J-2381250D01*
G01*
X42068750Y-121443750D02*
G75*
G03*
X42862500Y-122237500I793750J0D01*
G01*
X102393750Y-123031250D02*
G75*
G03*
X101600000Y-122237500I-793750J0D01*
G01*
X342900000Y-123031250D02*
G75*
G03*
X342106250Y-122237500I-793750J0D01*
G01*
X42068750Y-121443750D02*
G75*
G03*
X41275000Y-120650000I-793750J0D01*
G01*
X206375000Y-123825000D02*
G75*
G03*
X207168750Y-123031250I0J793750D01*
G01*
X88106250Y-123031250D02*
G75*
G03*
X88900000Y-123825000I793750J0D01*
G01*
X348456250Y-122237500D02*
X365918750Y-122237500D01*
X348456250Y-122237500D02*
G75*
G03*
X347662500Y-123031250I0J-793750D01*
G01*
X112712500Y-122237500D02*
G75*
G03*
X111918750Y-123031250I0J-793750D01*
G01*
X412750000Y-120650000D02*
G75*
G03*
X414337500Y-119062500I0J1587500D01*
G01*
X277812500Y-125412500D02*
X331787500Y-125412500D01*
M02*
